# xmcd
#
# Track frame offsets: 
#        151
#        19092
#        46261
#        80231
#        99418
#        127853
#        169610
#        189731
#        206918
#
# Disc length: 3114 seconds
#
# Revision: 0
# Processed by: cddbd v1.5.2PL0 Copyright (c) Steve Scherf et al.
# Submitted via: ExactAudioCopy v0.95b4
#
DISCID=740c2809
DTITLE=Eric Clapton - 1983-07-10 - Cocaine And Alcohol
DYEAR=1983
DGENRE=Blues
TTITLE0=Tulsa Time
TTITLE1=I Shot The Sheriff
TTITLE2=Worried Life Blues
TTITLE3=Lay Down Sally
TTITLE4=Let It Rain
TTITLE5=Double Trouble
TTITLE6=Sweet Little Lisa
TTITLE7=Blow Wind Blow
TTITLE8=The Shape You're In
EXTD=
EXTT0=
EXTT1=
EXTT2=
EXTT3=
EXTT4=
EXTT5=
EXTT6=
EXTT7=
EXTT8=
PLAYORDER=
